<svg width="32" height="32" viewBox="0 0 32 32" fill="none" xmlns="http://www.w3.org/2000/svg">
<path d="M16.335 29.67C23.6997 29.67 29.67 23.6997 29.67 16.335C29.67 8.97028 23.6997 3 16.335 3C8.97028 3 3 8.97028 3 16.335C3 23.6997 8.97028 29.67 16.335 29.67Z" fill="#FEAE1B"/>
<path d="M11.7336 15.9502H15.0683C15.3756 15.9502 15.624 15.7017 15.624 15.3944V12.0597C15.624 11.7523 15.3756 11.5039 15.0683 11.5039H11.7336C11.4262 11.5039 11.1778 11.7523 11.1778 12.0597V15.3944C11.1778 15.7017 11.4262 15.9502 11.7336 15.9502ZM11.7336 21.508H15.0683C15.3756 21.508 15.624 21.2596 15.624 20.9523V17.6175C15.624 17.3102 15.3756 17.0618 15.0683 17.0618H11.7336C11.4262 17.0618 11.1778 17.3102 11.1778 17.6175V20.9523C11.1778 21.2596 11.4262 21.508 11.7336 21.508ZM17.2914 21.508H20.6261C20.9336 21.508 21.182 21.2596 21.182 20.9523V17.6175C21.182 17.3102 20.9336 17.0618 20.6261 17.0618H17.2914C16.9841 17.0618 16.7357 17.3102 16.7357 17.6175V20.9523C16.7357 21.2596 16.9841 21.508 17.2914 21.508ZM21.3448 13.3341L19.3518 11.341C19.1344 11.1237 18.7832 11.1237 18.5659 11.341L16.5728 13.3341C16.3555 13.5514 16.3555 13.9027 16.5728 14.12L18.5659 16.113C18.7832 16.3304 19.1344 16.3304 19.3518 16.113L21.3448 14.12C21.5621 13.9027 21.5621 13.5514 21.3448 13.3341Z" fill="white"/>
</svg>
