<svg width="32" height="32" viewBox="0 0 32 32" fill="none" xmlns="http://www.w3.org/2000/svg">
<circle cx="16" cy="16" r="13.3333" fill="#F4F6F6"/>
<path d="M20.8134 11.2656L13.7779 13.7778V17.6667L14.1934 17.815L13.5673 19.0673C13.4229 19.3556 13.4112 19.6911 13.534 19.9889C13.6579 20.2867 13.9034 20.5161 14.2095 20.6184L16.4784 21.3745C16.5923 21.4123 16.7095 21.4306 16.8251 21.4306C17.2367 21.4306 17.6312 21.2006 17.8234 20.8173L18.5473 19.3695L20.8134 20.1789C21.1745 20.3084 21.5556 20.04 21.5556 19.6561V11.7884C21.5556 11.4045 21.1745 11.1361 20.8134 11.2656ZM16.8295 20.3206L14.5612 19.5645L15.2473 18.1917L17.4929 18.9939L16.8295 20.3206ZM11.5556 17.6667H12.6667V13.7778H11.5556C10.9429 13.7778 10.4445 14.2761 10.4445 14.8889V16.5556C10.4445 17.1684 10.9429 17.6667 11.5556 17.6667Z" fill="#95A0AD"/>
</svg>
