<svg width="32" height="32" viewBox="0 0 32 32" fill="none" xmlns="http://www.w3.org/2000/svg">
<circle cx="16" cy="16" r="13.3333" fill="#F4F6F6"/>
<path d="M20.4445 10.4443H14.8889C14.2756 10.4443 13.7778 10.9421 13.7778 11.5554V12.6666H14.3334H18.2223C18.8356 12.6666 19.3334 13.1643 19.3334 13.7777V17.6666V18.2221H20.4445C21.0578 18.2221 21.5556 17.7243 21.5556 17.111V11.5554C21.5556 10.9421 21.0578 10.4443 20.4445 10.4443Z" fill="#95A0AD"/>
<path d="M11.5556 21.5555H17.1112C17.724 21.5555 18.2223 21.0572 18.2223 20.4444V14.8888C18.2223 14.276 17.724 13.7777 17.1112 13.7777H11.5556C10.9429 13.7777 10.4445 14.276 10.4445 14.8888V20.4444C10.4445 21.0572 10.9429 21.5555 11.5556 21.5555ZM12.6667 15.9999H16.0001V17.111H12.6667V15.9999ZM12.6667 18.2222H16.0001V19.3333H12.6667V18.2222Z" fill="#95A0AD"/>
</svg>
