<svg width="14" height="14" viewBox="0 0 14 14" fill="none" xmlns="http://www.w3.org/2000/svg">
<path d="M2.91844 11.6667C2.91844 12.3101 3.44169 12.8334 4.0851 12.8334H9.91844C10.5619 12.8334 11.0851 12.3101 11.0851 11.6667V4.66669H12.2518V3.50002H10.5018H9.91844V2.33335C9.91844 1.68994 9.39519 1.16669 8.75177 1.16669H5.25177C4.60835 1.16669 4.0851 1.68994 4.0851 2.33335V3.50002H3.50177H1.75177V4.66669H2.91844V11.6667ZM5.25177 2.33335H8.75177V3.50002H5.25177V2.33335ZM4.66844 4.66669H9.3351H9.91844L9.91902 11.6667H4.0851V4.66669H4.66844Z" fill="#95A0AD"/>
<path d="M5.25177 5.83331H6.41844V10.5H5.25177V5.83331ZM7.5851 5.83331H8.75177V10.5H7.5851V5.83331Z" fill="#95A0AD"/>
</svg>
