<svg width="32" height="32" viewBox="0 0 32 32" fill="none" xmlns="http://www.w3.org/2000/svg">
<circle cx="16" cy="16" r="13.3333" fill="#F4F6F6"/>
<path d="M11.0001 12.1112V19.8889C11.0001 20.5023 11.4978 21.0001 12.1112 21.0001H19.8889C20.5023 21.0001 21.0001 20.5023 21.0001 19.8889V12.1112C21.0001 11.4978 20.5023 11.0001 19.8889 11.0001H12.1112C11.4978 11.0001 11.0001 11.4978 11.0001 12.1112ZM14.8889 13.2223H19.3334V14.3334H14.8889V13.2223ZM14.8889 15.4445H19.3334V16.5556H14.8889V15.4445ZM14.8889 17.6667H19.3334V18.7778H14.8889V17.6667ZM12.6667 13.2223H13.7778V14.3334H12.6667V13.2223ZM12.6667 15.4445H13.7778V16.5556H12.6667V15.4445ZM12.6667 17.6667H13.7778V18.7778H12.6667V17.6667Z" fill="#95A0AD"/>
</svg>
