<svg width="32" height="32" viewBox="0 0 32 32" fill="none" xmlns="http://www.w3.org/2000/svg">
<!-- <circle cx="16" cy="16" r="13.3333" fill="#FF551B"/> -->
<g clip-path="url(#clip0)">
<path d="M14.0359 10.8932L14.8215 11.6788L12.8573 13.643C11.9907 14.5096 11.9907 15.9191 12.8573 16.7857L13.643 17.5714L11.6788 19.5356L12.4645 20.3212L14.4287 18.3571L15.2144 19.1427C16.081 20.0093 17.4905 20.0093 18.3571 19.1427L20.3213 17.1785L21.1069 17.9642L21.8926 17.1785L14.8215 10.1075L14.0359 10.8932ZM17.9642 10.1075L18.7499 10.8932L17.5714 12.0717L16.7857 11.286L17.9642 10.1075ZM21.1069 13.2502L21.8926 14.0359L20.7141 15.2144L19.9284 14.4287L21.1069 13.2502Z" fill="white"/>
</g>
<!-- <circle cx="16" cy="16" r="13.3333" fill="#1A242D"/>
<g clip-path="url(#clip1)">
<path d="M14.0359 10.8932L14.8215 11.6788L12.8573 13.643C11.9907 14.5096 11.9907 15.9191 12.8573 16.7857L13.643 17.5714L11.6788 19.5356L12.4645 20.3212L14.4287 18.3571L15.2144 19.1427C16.081 20.0093 17.4905 20.0093 18.3571 19.1427L20.3213 17.1785L21.1069 17.9642L21.8926 17.1785L14.8215 10.1075L14.0359 10.8932ZM17.9642 10.1075L18.7499 10.8932L17.5714 12.0717L16.7857 11.286L17.9642 10.1075ZM21.1069 13.2502L21.8926 14.0359L20.7141 15.2144L19.9284 14.4287L21.1069 13.2502Z" fill="white"/>
</g> -->
<circle cx="16" cy="16" r="13.3333" fill="#F4F6F6"/>
<g clip-path="url(#clip2)">
<path d="M14.0359 10.8932L14.8215 11.6788L12.8573 13.643C11.9907 14.5096 11.9907 15.9191 12.8573 16.7857L13.643 17.5714L11.6788 19.5356L12.4645 20.3212L14.4287 18.3571L15.2144 19.1427C16.081 20.0093 17.4905 20.0093 18.3571 19.1427L20.3213 17.1785L21.1069 17.9642L21.8926 17.1785L14.8215 10.1075L14.0359 10.8932ZM17.9642 10.1075L18.7499 10.8932L17.5714 12.0717L16.7857 11.286L17.9642 10.1075ZM21.1069 13.2502L21.8926 14.0359L20.7141 15.2144L19.9284 14.4287L21.1069 13.2502Z" fill="#95A0AD"/>
</g>
<defs>
<clipPath id="clip0">
<rect width="13.3333" height="13.3333" fill="white" transform="translate(9.33337 9.33337)"/>
</clipPath>
<clipPath id="clip1">
<rect width="13.3333" height="13.3333" fill="white" transform="translate(9.33337 9.33337)"/>
</clipPath>
<clipPath id="clip2">
<rect width="13.3333" height="13.3333" fill="white" transform="translate(9.33337 9.33337)"/>
</clipPath>
</defs>
</svg>
