<svg width="32" height="32" viewBox="0 0 32 32" fill="none" xmlns="http://www.w3.org/2000/svg">
<circle cx="16" cy="16" r="13.3333" fill="#F4F6F6"/>
<path d="M15.7156 21.4189C15.8789 21.5062 16.0839 21.5056 16.2472 21.4184C20.6983 19.0273 21.0145 14.3556 21.0106 13.0273C21.01 12.8084 20.88 12.6139 20.6795 12.5256L16.2072 10.5445C16.0633 10.4812 15.8995 10.4812 15.7556 10.5451L11.3145 12.5262C11.1172 12.6145 10.9883 12.8056 10.9856 13.0217C10.9667 14.3434 11.2328 19.0251 15.7156 21.4189ZM14.1522 15.0517L15.4261 16.3256L17.8111 13.9406L18.5967 14.7262L15.4261 17.8967L13.3667 15.8373L14.1522 15.0517Z" fill="#95A0AD"/>
</svg>
