<svg width="32" height="32" viewBox="0 0 32 32" fill="none" xmlns="http://www.w3.org/2000/svg">
<path d="M16 29.3333C23.3638 29.3333 29.3333 23.3638 29.3333 16C29.3333 8.63622 23.3638 2.6667 16 2.6667C8.63622 2.6667 2.6667 8.63622 2.6667 16C2.6667 23.3638 8.63622 29.3333 16 29.3333Z" fill="#F4F6F6"/>
<path d="M11.5556 15.4445H14.8889C15.1956 15.4445 15.4445 15.1956 15.4445 14.8889V11.5556C15.4445 11.2489 15.1956 11.0001 14.8889 11.0001H11.5556C11.2489 11.0001 11.0001 11.2489 11.0001 11.5556V14.8889C11.0001 15.1956 11.2489 15.4445 11.5556 15.4445ZM17.1112 15.4445H20.4445C20.7517 15.4445 21.0001 15.1956 21.0001 14.8889V11.5556C21.0001 11.2489 20.7517 11.0001 20.4445 11.0001H17.1112C16.8039 11.0001 16.5556 11.2489 16.5556 11.5556V14.8889C16.5556 15.1956 16.8039 15.4445 17.1112 15.4445ZM11.5556 21.0001H14.8889C15.1956 21.0001 15.4445 20.7512 15.4445 20.4445V17.1112C15.4445 16.8045 15.1956 16.5556 14.8889 16.5556H11.5556C11.2489 16.5556 11.0001 16.8045 11.0001 17.1112V20.4445C11.0001 20.7512 11.2489 21.0001 11.5556 21.0001ZM17.1112 21.0001H20.4445C20.7517 21.0001 21.0001 20.7512 21.0001 20.4445V17.1112C21.0001 16.8045 20.7517 16.5556 20.4445 16.5556H17.1112C16.8039 16.5556 16.5556 16.8045 16.5556 17.1112V20.4445C16.5556 20.7512 16.8039 21.0001 17.1112 21.0001Z" fill="#95A0AD"/>
<path d="M16 29.3333C23.3638 29.3333 29.3333 23.3638 29.3333 16C29.3333 8.63622 23.3638 2.6667 16 2.6667C8.63622 2.6667 2.6667 8.63622 2.6667 16C2.6667 23.3638 8.63622 29.3333 16 29.3333Z" fill="#F4F6F6"/>
<path d="M11.5556 15.4445H14.8889C15.1956 15.4445 15.4445 15.1956 15.4445 14.8889V11.5556C15.4445 11.2489 15.1956 11.0001 14.8889 11.0001H11.5556C11.2489 11.0001 11.0001 11.2489 11.0001 11.5556V14.8889C11.0001 15.1956 11.2489 15.4445 11.5556 15.4445ZM17.1112 15.4445H20.4445C20.7517 15.4445 21.0001 15.1956 21.0001 14.8889V11.5556C21.0001 11.2489 20.7517 11.0001 20.4445 11.0001H17.1112C16.8039 11.0001 16.5556 11.2489 16.5556 11.5556V14.8889C16.5556 15.1956 16.8039 15.4445 17.1112 15.4445ZM11.5556 21.0001H14.8889C15.1956 21.0001 15.4445 20.7512 15.4445 20.4445V17.1112C15.4445 16.8045 15.1956 16.5556 14.8889 16.5556H11.5556C11.2489 16.5556 11.0001 16.8045 11.0001 17.1112V20.4445C11.0001 20.7512 11.2489 21.0001 11.5556 21.0001ZM17.1112 21.0001H20.4445C20.7517 21.0001 21.0001 20.7512 21.0001 20.4445V17.1112C21.0001 16.8045 20.7517 16.5556 20.4445 16.5556H17.1112C16.8039 16.5556 16.5556 16.8045 16.5556 17.1112V20.4445C16.5556 20.7512 16.8039 21.0001 17.1112 21.0001Z" fill="#95A0AD"/>
</svg>
