<svg width="34" height="34" viewBox="0 0 34 34" fill="none" xmlns="http://www.w3.org/2000/svg">
<rect width="34" height="34" rx="12" fill="#FEAE1B"/>
<path d="M10.3333 16.1667H15.3333C15.7933 16.1667 16.1667 15.7933 16.1667 15.3333V10.3333C16.1667 9.87333 15.7933 9.5 15.3333 9.5H10.3333C9.87333 9.5 9.5 9.87333 9.5 10.3333V15.3333C9.5 15.7933 9.87333 16.1667 10.3333 16.1667ZM18.6667 16.1667H23.6667C24.1275 16.1667 24.5 15.7933 24.5 15.3333V10.3333C24.5 9.87333 24.1275 9.5 23.6667 9.5H18.6667C18.2058 9.5 17.8333 9.87333 17.8333 10.3333V15.3333C17.8333 15.7933 18.2058 16.1667 18.6667 16.1667ZM10.3333 24.5H15.3333C15.7933 24.5 16.1667 24.1267 16.1667 23.6667V18.6667C16.1667 18.2067 15.7933 17.8333 15.3333 17.8333H10.3333C9.87333 17.8333 9.5 18.2067 9.5 18.6667V23.6667C9.5 24.1267 9.87333 24.5 10.3333 24.5ZM18.6667 24.5H23.6667C24.1275 24.5 24.5 24.1267 24.5 23.6667V18.6667C24.5 18.2067 24.1275 17.8333 23.6667 17.8333H18.6667C18.2058 17.8333 17.8333 18.2067 17.8333 18.6667V23.6667C17.8333 24.1267 18.2058 24.5 18.6667 24.5Z" fill="white"/>
</svg>
