<svg width="32" height="32" viewBox="0 0 32 32" fill="none" xmlns="http://www.w3.org/2000/svg">
<circle cx="16" cy="16" r="13.3333" fill="#F4F6F6"/>
<path d="M20.4445 10.4443H13.2223C11.6906 10.4443 10.4445 11.6904 10.4445 13.2221V18.7777C10.4445 20.3093 11.6906 21.5554 13.2223 21.5554H19.889C20.8079 21.5554 21.5556 20.8077 21.5556 19.8888C21.5556 18.9699 20.8079 18.2221 19.889 18.2221H12.6667V19.3332H19.889C20.1956 19.3332 20.4445 19.5821 20.4445 19.8888C20.4445 20.1954 20.1956 20.4443 19.889 20.4443H13.2223C12.3034 20.4443 11.5556 19.6966 11.5556 18.7777C11.5556 17.8588 12.3034 17.111 13.2223 17.111H20.4445C21.0573 17.111 21.5556 16.6127 21.5556 15.9999V11.5554C21.5556 10.9427 21.0573 10.4443 20.4445 10.4443ZM11.5556 16.5554H11.5573C11.5567 16.556 11.5562 16.556 11.5556 16.5566V16.5554Z" fill="#95A0AD"/>
</svg>
