<svg width="32" height="32" viewBox="0 0 32 32" fill="none" xmlns="http://www.w3.org/2000/svg">
<circle cx="16" cy="16" r="13.3333" fill="#FF551B"/>
<path d="M15 16C16.4707 16 17.6667 14.804 17.6667 13.3334C17.6667 11.8627 16.4707 10.6667 15 10.6667C13.5293 10.6667 12.3333 11.8627 12.3333 13.3334C12.3333 14.804 13.5293 16 15 16ZM16 16.6667H14C11.794 16.6667 10 18.4607 10 20.6667V21.3334H10.6667H11.3333H18.6667H19.3333H20V20.6667C20 18.4607 18.206 16.6667 16 16.6667Z" fill="white"/>
<path d="M19.736 15.3653C20.1387 14.6793 20.3174 13.88 20.2367 13.072C20.1174 11.8827 19.4534 10.8313 18.368 10.112L17.6314 11.2227C18.3774 11.7173 18.8314 12.422 18.91 13.2053C18.9834 13.942 18.7234 14.668 18.1954 15.196L17.4007 15.9907L18.4794 16.3073C21.3007 17.134 21.3334 19.9713 21.3334 20H22.6667C22.6667 18.8073 22.0294 16.4767 19.736 15.3653Z" fill="white"/>
</svg>
