<svg width="32" height="32" viewBox="0 0 32 32" fill="none" xmlns="http://www.w3.org/2000/svg">
<circle cx="16.335" cy="16.335" r="13.335" fill="#FEAE1B"/>
<path d="M11.5558 15.7721H14.8905C15.1979 15.7721 15.4463 15.5237 15.4463 15.2163V11.8816C15.4463 11.5743 15.1979 11.3258 14.8905 11.3258H11.5558C11.2484 11.3258 11 11.5743 11 11.8816V15.2163C11 15.5237 11.2484 15.7721 11.5558 15.7721ZM11.5558 21.33H14.8905C15.1979 21.33 15.4463 21.0816 15.4463 20.7742V17.4395C15.4463 17.1321 15.1979 16.8837 14.8905 16.8837H11.5558C11.2484 16.8837 11 17.1321 11 17.4395V20.7742C11 21.0816 11.2484 21.33 11.5558 21.33ZM17.1137 21.33H20.4484C20.7557 21.33 21.0042 21.0816 21.0042 20.7742V17.4395C21.0042 17.1321 20.7557 16.8837 20.4484 16.8837H17.1137C16.8063 16.8837 16.5579 17.1321 16.5579 17.4395V20.7742C16.5579 21.0816 16.8063 21.33 17.1137 21.33ZM21.167 13.156L19.174 11.163C18.9567 10.9457 18.6054 10.9457 18.3881 11.163L16.395 13.156C16.1777 13.3734 16.1777 13.7246 16.395 13.9419L18.3881 15.935C18.6054 16.1523 18.9567 16.1523 19.174 15.935L21.167 13.9419C21.3843 13.7246 21.3843 13.3734 21.167 13.156Z" fill="white"/>
</svg>
