<svg width="93" height="29" viewBox="0 0 93 29" fill="none" xmlns="http://www.w3.org/2000/svg">
<g clip-path="url(#clip0)">
<path d="M66.149 19.8949C61.4514 19.8949 56.7408 19.8949 51.9914 19.8949C51.9978 20.6402 52.1145 21.3336 52.3153 22.0076C52.7819 23.5888 53.7214 24.7488 55.3283 25.2802C56.1642 25.5524 57.0259 25.6366 57.9071 25.5588C58.594 25.494 59.2743 25.3904 59.9028 25.0923C60.946 24.5997 61.5292 23.7573 61.7365 22.6232C63.1944 22.6232 64.6458 22.6232 66.1879 22.6232C66.0259 23.2 65.9093 23.7508 65.7084 24.2757C64.879 26.4467 63.2397 27.7428 61.0821 28.4362C59.3585 28.987 57.5832 29.0907 55.7883 28.9028C53.7214 28.6824 51.8747 27.9501 50.3261 26.5439C48.9266 25.2802 48.0389 23.699 47.6436 21.8715C47.0864 19.2923 47.1382 16.726 48.2203 14.2829C49.4968 11.3731 51.7322 9.59103 54.8488 8.94298C56.8639 8.52175 58.8531 8.64488 60.7775 9.37717C63.3434 10.3622 64.9438 12.248 65.7343 14.8596C66.2268 16.4797 66.2527 18.1452 66.2138 19.8172C66.1944 19.8301 66.1749 19.8496 66.149 19.8949ZM52.0562 16.7843C55.2829 16.7843 58.4708 16.7843 61.7365 16.7843C61.594 16.1298 61.4968 15.4947 61.3024 14.8856C60.9201 13.6543 60.1166 12.7794 58.892 12.3387C58.1987 12.086 57.473 12.0277 56.7343 12.0536C55.743 12.0925 54.8294 12.3841 54.0454 13.0062C52.8402 13.9588 52.3089 15.2809 52.0562 16.7843Z" fill="black"/>
<path d="M29.3651 28.6306C29.3651 27.8659 29.3651 27.1271 29.3651 26.5439C29.0994 26.7642 28.743 27.0234 28.419 27.3151C27.4342 28.1964 26.2679 28.6954 24.9784 28.8769C23.5789 29.0713 22.1793 29.0518 20.8186 28.6306C18.6804 27.9631 17.3327 26.5828 16.9892 24.3146C16.756 22.7852 16.918 21.3271 17.8575 20.0375C18.7128 18.871 19.9115 18.1971 21.2527 17.7564C22.6588 17.2963 24.1102 17.063 25.5875 17.0371C26.7927 17.0176 27.9979 17.0306 29.2549 17.0306C29.2484 15.7604 29.3715 14.568 28.743 13.4664C28.3478 12.7665 27.7193 12.4036 26.9612 12.261C25.9439 12.0731 24.9201 12.0666 23.9417 12.4554C22.8208 12.8961 22.283 13.7969 22.1145 14.9504C22.0886 15.1383 22.0368 15.2161 21.8424 15.2096C20.4752 15.2031 19.1016 15.2031 17.6372 15.2031C17.7409 14.6652 17.7992 14.1533 17.9352 13.6543C18.5961 11.3148 20.2031 9.91507 22.4579 9.19574C23.8316 8.76155 25.2506 8.63842 26.6955 8.7097C27.9266 8.76803 29.1253 8.96244 30.2592 9.4744C32.1577 10.3233 33.2463 11.8138 33.6221 13.8228C33.7581 14.5551 33.8165 15.3198 33.8165 16.0715C33.8359 20.1088 33.8229 24.1461 33.8229 28.1899C33.8229 28.6176 33.8229 28.6176 33.4083 28.6176C32.0929 28.6306 30.7517 28.6306 29.3651 28.6306ZM29.3003 19.9079C28.121 19.9079 27.026 19.8626 25.9439 19.9209C25.1793 19.9662 24.4082 20.0958 23.6631 20.2903C22.432 20.6208 21.5508 21.3466 21.4342 22.7204C21.324 23.9841 21.7905 25.17 23.229 25.5265C24.5767 25.857 25.8985 25.7209 27.1555 25.1312C28.2311 24.6257 29.0022 23.8027 29.1707 22.5908C29.2938 21.716 29.2614 20.8217 29.3003 19.9079Z" fill="black"/>
<path d="M0 22.5001C1.4514 22.5001 2.83153 22.5001 4.22462 22.5001C4.30238 22.8501 4.36069 23.2 4.47084 23.5305C4.82073 24.6063 5.57235 25.2478 6.67387 25.4746C7.80777 25.7015 8.94816 25.7209 10.0497 25.3386C11.4622 24.8525 12.0389 23.1287 11.1836 21.9817C10.7171 21.3596 10.0173 21.1133 9.31101 20.9448C8.24838 20.6921 7.16631 20.5171 6.09719 20.2838C4.81425 20.0051 3.55076 19.6811 2.42981 18.9553C1.15983 18.1323 0.570194 16.9334 0.414687 15.4624C0.311015 14.4449 0.382289 13.4599 0.764579 12.5138C1.32181 11.1399 2.35853 10.2132 3.67387 9.58459C5.15119 8.87822 6.71922 8.6514 8.35205 8.73565C9.57667 8.80045 10.7689 8.98191 11.8898 9.48738C13.7365 10.3234 14.7927 11.7815 15.1944 13.7386C15.2527 14.0302 15.2981 14.3218 15.3499 14.6393C13.9244 14.6393 12.5443 14.6393 11.1382 14.6393C11.067 14.419 11.0022 14.1857 10.9244 13.9589C10.5421 12.8572 9.74514 12.2869 8.61771 12.1249C7.71058 11.9953 6.81641 12.0083 5.96112 12.3841C4.85961 12.8767 4.36717 13.9978 4.7689 15.067C4.9892 15.6568 5.47516 15.9743 6.02592 16.1298C7.03672 16.4085 8.06047 16.6483 9.09071 16.8492C10.5551 17.1343 12.0194 17.3935 13.3607 18.0934C14.7991 18.8451 15.6415 20.0116 15.8488 21.6317C16.0302 23.038 15.946 24.4054 15.2786 25.6885C14.514 27.166 13.2505 28.0279 11.7084 28.514C10.0626 29.0324 8.37149 29.0778 6.66091 28.9287C5.41685 28.8186 4.22462 28.5205 3.12959 27.9243C1.42549 26.9911 0.414687 25.5524 0.103672 23.6342C0.0388769 23.2648 0.0323974 22.8954 0 22.5001Z" fill="black"/>
<path d="M42.8099 28.6112C41.2678 28.6112 39.784 28.6112 38.2613 28.6112C38.2613 23.2778 38.2613 17.9508 38.2613 12.585C37.3671 12.585 36.4989 12.585 35.6112 12.585C35.6112 11.4186 35.6112 10.291 35.6112 9.13096C36.3499 9.13096 37.082 9.13096 37.8142 9.13096C38.2484 9.13096 38.2484 9.13096 38.2484 8.69029C38.2484 7.75062 38.2095 6.81096 38.2613 5.87129C38.352 4.19286 38.838 2.65699 40.1274 1.47107C40.9957 0.667496 42.0518 0.207384 43.2181 0.0842555C44.1252 -0.0129512 45.0453 -0.00647078 45.9589 0.019451C46.3801 0.0259315 46.8013 0.168501 47.2159 0.272188C47.2872 0.29163 47.3779 0.414758 47.3844 0.486043C47.3974 1.5942 47.3909 2.70884 47.3909 3.83643C46.9827 3.75219 46.6004 3.62258 46.2181 3.60314C45.622 3.57722 45 3.53833 44.4233 3.67442C43.4708 3.90124 42.946 4.64001 42.8812 5.57319C42.7969 6.73967 42.8617 7.91912 42.8617 9.12448C44.2678 9.12448 45.7192 9.12448 47.19 9.12448C47.19 10.2845 47.19 11.4121 47.19 12.5656C45.7386 12.5656 44.2937 12.5656 42.8164 12.5656C42.8099 17.9184 42.8099 23.2454 42.8099 28.6112Z" fill="black"/>
<path d="M79.8855 7.10903C80.1123 7.09607 80.3067 7.08311 80.4946 7.08311C81.5443 7.08311 82.5875 7.07015 83.6371 7.08959C83.9287 7.09607 84.013 6.99239 84.013 6.72021C84.0065 5.59909 84.0259 4.47797 84.013 3.35037C84.0065 3.04579 84.1101 2.96803 84.3952 2.96803C85.6717 2.98099 86.9417 2.97451 88.2181 2.96155C88.4903 2.96155 88.5939 3.03931 88.5875 3.33093C88.5745 4.47797 88.5939 5.61853 88.5875 6.76557C88.5875 7.03775 88.6587 7.10255 88.9374 7.09607C90.0583 7.07015 91.1793 7.08959 92.3067 7.08311C92.5853 7.08311 92.6695 7.19328 92.6631 7.47194C92.6501 8.76803 92.6566 10.0641 92.6695 11.3602C92.6695 11.6065 92.5659 11.6648 92.3326 11.6583C91.1857 11.6453 90.0453 11.6518 88.8985 11.6389C88.6782 11.6389 88.5939 11.7166 88.5939 11.937C88.5939 13.1034 88.581 14.2699 88.5875 15.4364C88.5875 15.7021 88.5097 15.7669 88.257 15.7669C86.9482 15.7604 85.6458 15.7734 84.3369 15.7734C84.1037 15.7734 83.9806 15.741 83.9935 15.4299C84.0259 14.2894 84.013 13.1423 84.0194 11.9953C84.0194 11.7231 83.8963 11.6259 83.6177 11.6259C82.4968 11.6389 81.3758 11.6259 80.2484 11.6453C79.9633 11.6518 79.8661 11.587 79.8661 11.2695C79.8985 9.90211 79.8855 8.52825 79.8855 7.10903Z" fill="#FEAE1B"/>
<path d="M84 16.9982C85.5421 16.9982 87.0389 16.9982 88.5875 16.9982C88.5875 17.1278 88.5875 17.2509 88.5875 17.3805C88.5875 19.2793 88.581 21.1781 88.5939 23.0833C88.5939 23.6212 88.743 24.1332 89.0929 24.5544C89.4687 25.0015 89.9805 25.1895 90.5443 25.2154C91.3672 25.2543 92.1771 25.1636 92.9676 24.8525C92.9805 24.9562 92.9935 25.0275 92.9935 25.0988C92.9935 26.1356 92.987 27.1725 92.9935 28.2094C92.9935 28.4103 92.9417 28.5204 92.7408 28.5788C91.5356 28.9157 90.324 29.0453 89.0734 28.9352C88.095 28.8445 87.162 28.6241 86.3261 28.1057C85.0108 27.2891 84.3499 26.0449 84.1231 24.5544C84.0324 23.9582 84.0065 23.3555 84 22.7528C83.987 20.9707 83.9935 19.1886 83.9935 17.4065C84 17.2704 84 17.1537 84 16.9982Z" fill="black"/>
<path d="M78.5378 16.3502C78.5378 17.6009 78.5378 18.8257 78.5378 20.0764C75.5443 20.0764 72.5637 20.0764 69.5637 20.0764C69.5637 18.8322 69.5637 17.6074 69.5637 16.3502C72.5443 16.3502 75.5248 16.3502 78.5378 16.3502Z" fill="black"/>
</g>
<defs>
<clipPath id="clip0">
<rect width="93" height="29" fill="white"/>
</clipPath>
</defs>
</svg>
