<svg width="32" height="32" viewBox="0 0 32 32" fill="none" xmlns="http://www.w3.org/2000/svg">
<circle cx="16" cy="16" r="13.3333" fill="#F4F6F6"/>
<path d="M18.7778 13.7777V13.2221C18.7778 11.6904 17.5317 10.4443 16 10.4443C14.4683 10.4443 13.2222 11.6904 13.2222 13.2221V14.8888H12.6667C12.0539 14.8888 11.5555 15.3871 11.5555 15.9999V20.4443C11.5555 21.0571 12.0539 21.5554 12.6667 21.5554H19.3333C19.9461 21.5554 20.4444 21.0571 20.4444 20.4443V15.9999C20.4444 15.3871 19.9461 14.8888 19.3333 14.8888H14.3333V13.2221C14.3333 12.3032 15.0811 11.5554 16 11.5554C16.9189 11.5554 17.6667 12.3032 17.6667 13.2221V13.7777H18.7778Z" fill="#95A0AD"/>
</svg>
