<svg width="32" height="32" viewBox="0 0 32 32" fill="none" xmlns="http://www.w3.org/2000/svg">
<circle cx="16" cy="16" r="13.3333" fill="#F4F6F6"/>
<path d="M22.2716 14.1421L16.2569 10.8088C16.0562 10.6975 15.8122 10.6975 15.6116 10.8081L9.62623 14.1148C9.41423 14.2321 9.2829 14.4548 9.28223 14.6975C9.28156 14.9401 9.41223 15.1628 9.62423 15.2808L15.6389 18.6408C15.7402 18.6975 15.8516 18.7255 15.9636 18.7255C16.0756 18.7255 16.1869 18.6975 16.2876 18.6415L22.2729 15.3081C22.4849 15.1901 22.6156 14.9668 22.6156 14.7248C22.6156 14.4828 22.4842 14.2595 22.2716 14.1421Z" fill="#95A0AD"/>
<path d="M21.6256 16.8096L15.9489 19.9629L10.2723 16.8096L9.62494 17.9749L15.6249 21.3082C15.7256 21.3642 15.8376 21.3922 15.9489 21.3922C16.0603 21.3922 16.1723 21.3642 16.2723 21.3082L22.2723 17.9749L21.6256 16.8096Z" fill="#95A0AD"/>
</svg>
