<svg width="32" height="32" viewBox="0 0 32 32" fill="none" xmlns="http://www.w3.org/2000/svg">
<circle cx="16" cy="16" r="13.3333" fill="#F4F6F6"/>
<path d="M19.275 11.3073C19.1806 11.1189 18.9883 11.0001 18.7778 11.0001H13.2222C13.0117 11.0001 12.8194 11.1189 12.725 11.3073L10.5028 15.7517C10.4244 15.9078 10.4244 16.0923 10.5028 16.2489L12.725 20.6934C12.8194 20.8812 13.0117 21.0001 13.2222 21.0001H18.7778C18.9883 21.0001 19.1806 20.8812 19.275 20.6928L21.4972 16.2484C21.5756 16.0923 21.5756 15.9078 21.4972 15.7512L19.275 11.3073ZM20.1011 15.4445H15.7878L14.1211 12.1112H18.4344L20.1011 15.4445ZM18.4344 19.8889H14.1211L15.7878 16.5556H20.1011L18.4344 19.8889Z" fill="#95A0AD"/>
</svg>
