<svg width="32" height="32" viewBox="0 0 32 32" fill="none" xmlns="http://www.w3.org/2000/svg">
<circle cx="16" cy="16" r="13.3333" fill="#62D26F"/>
<path fill-rule="evenodd" clip-rule="evenodd" d="M13.5563 20.8337C13.6784 20.9186 13.8179 20.9639 13.9691 20.9639H13.9691C13.9924 20.9639 14.0214 20.9639 14.0389 20.9582H14.0621C14.254 20.9299 14.4168 20.8337 14.5331 20.681L14.6727 20.4999C14.9866 20.0868 15.4925 19.8378 16.0216 19.8208C16.6263 19.8095 17.1613 20.0585 17.4985 20.5055L17.5741 20.6017C17.6846 20.7489 17.8474 20.8507 18.0334 20.879C18.2137 20.9073 18.4056 20.862 18.5625 20.7545L19.7952 19.8944C19.958 19.7812 20.0627 19.6115 20.0976 19.4191C20.1325 19.221 20.0801 19.023 19.9638 18.8645L19.8068 18.6552C19.5045 18.2534 19.4173 17.7385 19.5684 17.2688C19.7313 16.7482 20.1557 16.3408 20.7023 16.1711L20.8186 16.1371C21.0046 16.0805 21.1558 15.956 21.2488 15.7863C21.3419 15.6109 21.3593 15.4015 21.2954 15.2148L20.8244 13.8171C20.7662 13.636 20.6325 13.4832 20.4523 13.3984C20.2836 13.3192 20.0976 13.3078 19.9289 13.3588L19.7254 13.421C19.1905 13.5851 18.6032 13.4946 18.1555 13.1833L18.0916 13.1381C17.6729 12.8495 17.4287 12.3855 17.4287 11.8989V11.7404C17.4287 11.5424 17.3473 11.35 17.202 11.2142C17.0682 11.084 16.8938 11.0161 16.7077 11.0161H15.1843C14.7889 11.0161 14.4633 11.3387 14.4633 11.7348V11.8706C14.4633 12.3742 14.2075 12.8551 13.783 13.1551L13.7075 13.2116C13.219 13.5512 12.5911 13.6473 12.0213 13.4663C11.8526 13.4153 11.6782 13.4267 11.527 13.5002C11.3584 13.5794 11.2305 13.7266 11.1723 13.8963L10.6839 15.3393C10.62 15.526 10.6374 15.7297 10.7304 15.9051C10.8235 16.0749 10.9805 16.205 11.1723 16.2673L11.2712 16.2956C11.7712 16.4597 12.1724 16.8501 12.3411 17.3424L12.3701 17.4216C12.562 17.9479 12.4922 18.5081 12.1724 18.9268C12.0445 19.0966 11.9922 19.3003 12.0213 19.4983C12.0503 19.685 12.155 19.8491 12.312 19.9623L13.5563 20.8337ZM17.6505 15.9941C17.6505 16.909 16.9088 17.6507 15.9939 17.6507C15.079 17.6507 14.3373 16.909 14.3373 15.9941C14.3373 15.0792 15.079 14.3375 15.9939 14.3375C16.9088 14.3375 17.6505 15.0792 17.6505 15.9941Z" fill="white"/>
</svg>
